<svg width="1600" height="900" viewBox="0 0 1600 900" fill="none" xmlns="http://www.w3.org/2000/svg">
  <defs>
    <linearGradient id="sky" x1="800" y1="0" x2="800" y2="900" gradientUnits="userSpaceOnUse">
      <stop stop-color="#BFE4FF"/>
      <stop offset="1" stop-color="#77C2F4"/>
    </linearGradient>
    <linearGradient id="hillFar" x1="800" y1="560" x2="800" y2="900" gradientUnits="userSpaceOnUse">
      <stop stop-color="#A2D27A"/>
      <stop offset="1" stop-color="#699E4C"/>
    </linearGradient>
    <linearGradient id="hillNear" x1="800" y1="600" x2="800" y2="900" gradientUnits="userSpaceOnUse">
      <stop stop-color="#75B75A"/>
      <stop offset="1" stop-color="#457F34"/>
    </linearGradient>
    <radialGradient id="cloud" cx="0" cy="0" r="1" gradientUnits="userSpaceOnUse" gradientTransform="translate(0 0) rotate(90) scale(90 180)">
      <stop stop-color="white" stop-opacity="0.65"/>
      <stop offset="1" stop-color="white" stop-opacity="0"/>
    </radialGradient>
  </defs>

  <rect width="1600" height="900" fill="url(#sky)"/>
  <ellipse cx="1320" cy="140" rx="280" ry="120" fill="url(#cloud)"/>
  <ellipse cx="290" cy="180" rx="210" ry="95" fill="url(#cloud)"/>
  <ellipse cx="900" cy="220" rx="170" ry="80" fill="url(#cloud)"/>

  <path d="M-80 700C130 610 330 655 560 610C780 566 1030 610 1250 575C1430 546 1545 580 1700 525V980H-80V700Z" fill="url(#hillFar)"/>
  <path d="M-120 785C130 706 343 755 550 718C775 678 980 735 1160 705C1360 671 1500 720 1720 672V980H-120V785Z" fill="url(#hillNear)"/>

  <g opacity="0.55">
    <g transform="translate(960 250)">
      <rect x="-3" y="65" width="6" height="280" rx="3" fill="#EAF5FF"/>
      <circle cx="0" cy="65" r="11" fill="#B9DDF8"/>
      <rect x="6" y="63" width="150" height="4" rx="2" fill="#EAF5FF"/>
      <rect x="-92" y="95" width="104" height="4" rx="2" transform="rotate(-120 -92 95)" fill="#EAF5FF"/>
      <rect x="-17" y="-25" width="104" height="4" rx="2" transform="rotate(120 -17 -25)" fill="#EAF5FF"/>
    </g>

    <g transform="translate(1325 325) scale(0.78)">
      <rect x="-3" y="65" width="6" height="220" rx="3" fill="#EAF5FF"/>
      <circle cx="0" cy="65" r="10" fill="#B9DDF8"/>
      <rect x="6" y="63" width="124" height="4" rx="2" fill="#EAF5FF"/>
      <rect x="-78" y="88" width="88" height="4" rx="2" transform="rotate(-120 -78 88)" fill="#EAF5FF"/>
      <rect x="-13" y="-14" width="88" height="4" rx="2" transform="rotate(120 -13 -14)" fill="#EAF5FF"/>
    </g>

    <g transform="translate(710 365) scale(0.56)">
      <rect x="-3" y="65" width="6" height="180" rx="3" fill="#EAF5FF"/>
      <circle cx="0" cy="65" r="10" fill="#B9DDF8"/>
      <rect x="6" y="63" width="118" height="4" rx="2" fill="#EAF5FF"/>
      <rect x="-74" y="87" width="82" height="4" rx="2" transform="rotate(-120 -74 87)" fill="#EAF5FF"/>
      <rect x="-11" y="-9" width="82" height="4" rx="2" transform="rotate(120 -11 -9)" fill="#EAF5FF"/>
    </g>
  </g>
</svg>
